<?xml version="1.0" encoding="UTF-8" standalone="no"?><!-- Generator: Gravit.io --><svg xmlns="http://www.w3.org/2000/svg" xmlns:xlink="http://www.w3.org/1999/xlink" style="isolation:isolate" viewBox="0 0 566.613 572.613" width="566.613pt" height="572.613pt"><defs><clipPath id="_clipPath_m4V9LhSVgkAwfSWk9OwtfQYUmw7Vn4hr"><rect width="566.613" height="572.613"/></clipPath></defs><g clip-path="url(#_clipPath_m4V9LhSVgkAwfSWk9OwtfQYUmw7Vn4hr)"><g style="isolation:isolate"><ellipse vector-effect="non-scaling-stroke" cx="283.3063712774538" cy="286.30637127745393" rx="277.3063712774538" ry="280.30637127745393" fill="none" stroke-width="12" stroke="rgb(185,185,185)" stroke-linejoin="round" stroke-linecap="butt" stroke-miterlimit="1.414"/></g><g style="isolation:isolate"><path d=" M 329.578 212.803 L 373.934 290.498 L 329.578 368.197 L 240.867 368.197 L 196.519 290.498 L 240.867 212.803 L 329.578 212.803 Z " fill-rule="evenodd" fill="none" vector-effect="non-scaling-stroke" stroke-width="6" stroke="rgb(209,209,209)" stroke-linejoin="round" stroke-linecap="butt" stroke-miterlimit="1.414"/></g><g style="isolation:isolate"><path d=" M 470.645 293.605 L 515 371.301 L 470.645 449 L 381.934 449 L 337.585 371.301 L 381.934 293.605 L 470.645 293.605 Z " fill-rule="evenodd" fill="rgb(213,0,0)"/><path d=" M 186.645 293.605 L 231 371.301 L 186.645 449 L 97.934 449 L 53.585 371.301 L 97.934 293.605 L 186.645 293.605 Z " fill-rule="evenodd" fill="rgb(13,71,161)"/><path d=" M 329.578 49.908 L 373.934 127.604 L 329.578 205.303 L 240.867 205.303 L 196.519 127.604 L 240.867 49.908 L 329.578 49.908 Z " fill-rule="evenodd" fill="rgb(255,234,0)"/></g><g style="isolation:isolate"><path d=" M 327.578 376.697 L 371.934 454.393 L 327.578 532.092 L 238.867 532.092 L 194.519 454.393 L 238.867 376.697 L 327.578 376.697 Z " fill-rule="evenodd" fill="rgb(49,27,146)"/><path d=" M 470.645 130.605 L 515 208.301 L 470.645 286 L 381.934 286 L 337.585 208.301 L 381.934 130.605 L 470.645 130.605 Z " fill-rule="evenodd" fill="rgb(255,109,0)"/><path d=" M 188.645 130.605 L 233 208.301 L 188.645 286 L 99.934 286 L 55.585 208.301 L 99.934 130.605 L 188.645 130.605 Z " fill-rule="evenodd" fill="rgb(46,125,50)"/></g><g style="isolation:isolate"><path d=" M 99.916 123.843 L 99.946 123.894 L 189.413 123.457 L 234.521 46.197 L 234.491 46.145 L 99.916 123.843 L 99.916 123.843 Z " fill="rgb(0,255,0)"/><path d=" M 338.156 46.258 L 338.126 46.309 L 383.238 123.572 L 472.702 124.007 L 472.732 123.955 L 338.156 46.258 L 338.156 46.258 Z " fill="rgb(255,171,0)"/><path d=" M 522.658 211.241 L 522.599 211.241 L 478.244 288.94 L 522.599 366.636 L 522.658 366.636 L 522.658 211.241 L 522.658 211.241 Z " fill="rgb(229,152,102)"/><path d=" M 469.825 456.49 L 469.795 456.438 L 380.328 456.875 L 335.22 534.136 L 335.249 534.187 L 469.825 456.49 L 469.825 456.49 Z " fill="rgb(197,17,98)"/><path d=" M 232.319 534.151 L 232.349 534.099 L 187.237 456.837 L 97.773 456.402 L 97.744 456.453 L 232.319 534.151 L 232.319 534.151 Z " fill="rgb(81,46,95)"/><path d=" M 46 366.254 L 46.059 366.254 L 90.415 288.555 L 46.059 210.86 L 46 210.86 L 46 366.254 L 46 366.254 Z " fill="rgb(0,150,136)"/></g></g></svg>